<svg xmlns="http://www.w3.org/2000/svg" width="1440" height="772" viewBox="0 0 1440 772" fill="none">
<path fill-rule="evenodd" clip-rule="evenodd" d="M120.47 208.282C82.7561 158.235 21.8034 98.696 64.434 50.1272C108.586 -0.17474 235.723 11.4666 317.639 -16.3522C381.572 -38.0639 417.286 -90.7265 490.271 -94.4879C563.216 -98.2473 610.492 -44.7308 681.973 -35.1288C791.06 -20.4752 949.018 -81.5835 1009.9 -24.6856C1069.36 30.8804 901.104 89.2039 885.172 154.765C871.899 209.388 986.755 273.223 927.355 315.019C865.346 358.65 740.061 305.797 648.622 321.21C573.736 333.833 532.543 395.477 454.838 394.669C377.247 393.861 322.884 349.095 265.709 317.224C207.858 284.976 153.149 251.648 120.47 208.282Z" stroke="white" stroke-opacity="0.04"/>
<path opacity="0.95875" fill-rule="evenodd" clip-rule="evenodd" d="M133.651 206.984C98.8364 156.169 41.3419 95.3735 86.7372 47.738C133.752 -1.5974 260.144 12.7318 343.608 -13.3336C408.749 -33.6768 447.467 -85.5502 520.624 -87.7622C593.741 -89.973 637.913 -35.487 708.798 -24.3757C816.977 -7.41852 978.35 -65.1413 1035.93 -6.98742C1092.16 49.8052 920.652 104.526 900.963 169.71C884.559 224.018 995.678 290.249 933.912 330.76C869.434 373.05 747.262 317.573 654.993 331.039C579.428 342.067 534.718 402.801 457.107 400.345C379.609 397.893 327.852 352.002 272.543 318.939C216.58 285.484 163.819 251.017 133.651 206.984Z" stroke="white" stroke-opacity="0.04"/>
<path opacity="0.9175" fill-rule="evenodd" clip-rule="evenodd" d="M146.9 205.965C115.026 154.442 61.0595 92.4652 109.164 45.8211C158.985 -2.48766 284.476 14.5121 369.387 -9.76823C435.658 -28.7182 477.333 -79.7393 550.572 -80.3992C623.772 -81.0587 664.786 -25.6696 734.99 -13.0624C842.128 6.1776 1006.72 -48.0893 1060.92 11.2497C1113.85 69.1997 939.308 120.252 915.886 184.978C896.372 238.906 1003.62 307.451 939.561 346.629C872.693 387.527 753.783 329.494 660.796 340.995C584.643 350.415 536.471 410.164 459.048 406.064C381.739 401.971 332.65 355.011 279.274 320.795C225.268 286.175 174.519 250.61 146.9 205.965Z" stroke="white" stroke-opacity="0.04"/>
<path opacity="0.87625" fill-rule="evenodd" clip-rule="evenodd" d="M160.199 205.227C131.305 153.06 80.9322 89.9767 131.688 44.3807C184.254 -2.84255 308.692 16.8069 394.946 -5.65862C462.265 -23.1923 506.847 -73.2989 580.079 -72.4059C653.272 -71.5133 691.079 -15.2885 760.515 -1.2008C866.483 20.2985 1034.09 -30.4463 1084.85 30.0055C1134.42 89.0422 957.049 136.363 929.922 200.554C907.322 254.035 1010.56 324.812 944.295 362.608C875.118 402.063 759.614 341.545 666.024 351.069C589.376 358.868 537.8 417.559 460.66 411.821C383.632 406.092 337.272 358.12 285.895 322.793C233.91 287.049 185.236 250.43 160.199 205.227Z" stroke="white" stroke-opacity="0.04"/>
<path opacity="0.835" fill-rule="evenodd" clip-rule="evenodd" d="M173.532 204.771C147.653 152.023 100.936 87.911 154.28 43.4186C209.528 -2.66153 332.761 19.6138 420.254 -1.00968C488.539 -17.1056 535.972 -66.2367 609.108 -63.7918C682.206 -61.3483 716.759 -4.35632 785.344 11.1947C890.011 34.9272 1060.43 -12.2338 1107.69 49.2572C1153.84 109.309 973.854 152.841 943.055 216.418C917.395 269.387 1016.51 342.309 948.108 378.677C876.706 416.642 764.75 353.713 670.669 361.246C593.619 367.416 538.703 424.979 461.939 417.609C385.288 410.25 341.712 361.324 292.397 324.931C242.498 288.106 195.957 250.478 173.532 204.771Z" stroke="white" stroke-opacity="0.04"/>
<path opacity="0.79375" fill-rule="evenodd" clip-rule="evenodd" d="M186.883 204.598C164.051 151.334 121.046 86.2705 176.914 42.936C234.776 -1.94491 356.654 22.9291 445.278 4.17286C514.447 -10.4658 564.674 -58.5614 637.625 -54.5678C710.538 -50.5762 741.795 7.1135 809.445 24.1089C912.685 50.0457 1085.71 6.52601 1129.41 68.9812C1172.08 129.974 989.701 169.665 955.269 232.55C926.581 284.943 1021.44 359.922 950.995 394.818C877.455 431.246 769.183 365.982 674.727 371.517C597.37 376.049 539.179 432.412 462.886 423.42C386.704 414.441 345.966 364.621 298.771 327.204C251.019 289.345 206.668 250.753 186.883 204.598Z" stroke="white" stroke-opacity="0.04"/>
<path opacity="0.7525" fill-rule="evenodd" clip-rule="evenodd" d="M200.237 204.709C180.478 150.993 141.238 85.0574 199.562 42.9336C259.967 -0.693505 380.342 26.7489 469.99 9.88272C539.958 -3.28079 592.918 -50.2824 665.595 -44.7448C738.234 -39.2101 766.158 19.1071 832.789 37.5261C934.476 65.6356 1109.9 25.8103 1149.98 89.1536C1189.12 151.014 1004.57 186.815 966.548 248.931C934.867 300.684 1025.36 377.629 952.953 411.01C877.365 445.857 772.909 378.337 678.192 381.866C600.622 384.757 539.228 439.852 463.498 429.248C387.879 418.659 350.028 368.006 305.012 329.612C259.463 290.763 217.358 251.254 200.237 204.709Z" stroke="white" stroke-opacity="0.04"/>
<path opacity="0.71125" fill-rule="evenodd" clip-rule="evenodd" d="M213.575 205.102C196.915 151 161.487 84.273 222.196 43.4112C285.072 1.09116 403.796 31.0685 494.359 16.113C565.04 4.44062 620.668 -41.4097 692.983 -34.3349C765.259 -27.2638 789.816 31.6098 855.348 51.43C955.359 81.6779 1132.96 45.5955 1169.38 109.75C1204.94 172.402 1018.45 204.269 976.879 265.542C942.244 316.592 1028.26 395.407 953.98 427.234C876.435 460.457 775.923 390.764 681.06 392.283C603.371 393.528 538.849 447.288 463.775 435.085C388.81 422.9 353.892 371.476 311.11 332.15C267.821 292.359 228.011 251.982 213.575 205.102Z" stroke="white" stroke-opacity="0.04"/>
<path opacity="0.67" fill-rule="evenodd" clip-rule="evenodd" d="M226.883 205.778C213.342 151.356 181.77 83.9183 244.789 44.3683C310.058 3.40688 426.988 35.8827 518.354 22.8559C589.663 12.689 647.892 -31.9542 719.757 -23.3508C791.582 -14.7519 812.741 44.6064 877.095 65.8037C975.306 98.1532 1154.88 65.8575 1187.58 130.745C1219.52 194.113 1031.31 222.007 986.249 282.361C948.702 332.646 1030.14 413.237 954.074 443.469C874.667 475.029 778.22 403.247 683.329 402.755C605.615 402.352 538.044 454.711 463.716 440.924C389.497 427.158 357.555 375.025 317.059 334.816C276.083 294.132 238.617 252.936 226.883 205.778Z" stroke="white" stroke-opacity="0.04"/>
<path opacity="0.62875" fill-rule="evenodd" clip-rule="evenodd" d="M240.144 206.735C229.738 152.06 202.06 83.9938 267.314 45.8037C334.896 6.25082 449.889 41.1855 541.948 30.1035C613.798 21.4543 674.556 -21.9274 745.883 -11.8058C817.171 -1.68966 834.906 58.081 898.003 80.6296C994.295 115.041 1175.61 86.5717 1204.57 152.113C1232.85 216.119 1043.15 240.007 994.647 299.369C954.233 348.827 1030.99 431.095 953.234 459.697C872.063 489.554 779.799 415.772 684.994 413.268C607.351 411.218 536.812 462.113 463.322 446.759C389.939 431.427 361.012 378.649 322.85 337.607C284.237 296.079 249.161 254.113 240.144 206.735Z" stroke="white" stroke-opacity="0.04"/>
<path opacity="0.5875" fill-rule="evenodd" clip-rule="evenodd" d="M253.342 207.974C246.084 153.11 222.333 84.4993 289.742 47.7158C359.556 9.61956 472.471 46.9705 565.111 37.8467C637.414 30.7259 700.628 -11.3415 771.329 0.285931C841.993 11.9071 856.283 72.0172 918.045 95.8896C1012.3 132.321 1195.14 107.713 1220.32 173.828C1244.9 238.395 1053.95 258.247 1002.06 316.545C958.832 365.116 1030.82 448.961 951.463 475.897C868.626 504.015 780.658 428.322 686.054 423.81C608.576 420.115 535.156 469.484 462.593 452.582C390.135 435.704 364.259 382.344 328.478 340.518C292.275 298.197 259.631 255.513 253.342 207.974Z" stroke="white" stroke-opacity="0.04"/>
<path opacity="0.54625" fill-rule="evenodd" clip-rule="evenodd" d="M266.461 209.491C262.359 154.507 242.566 85.4343 312.046 50.1021C384.007 13.509 494.707 53.2308 587.815 46.0763C660.483 40.4924 726.076 -0.209284 796.066 12.9097C866.018 26.0217 876.846 86.3982 937.199 111.565C1029.31 149.973 1213.45 129.255 1234.81 195.863C1255.67 260.912 1063.69 276.704 1008.49 333.867C962.492 381.492 1029.62 466.812 948.763 492.049C864.36 518.394 780.794 440.883 686.507 434.368C609.289 429.033 533.077 476.816 461.529 458.386C390.086 439.982 367.291 386.107 333.936 343.547C300.186 300.484 270.015 257.135 266.461 209.491Z" stroke="white" stroke-opacity="0.04"/>
<path opacity="0.505" fill-rule="evenodd" clip-rule="evenodd" d="M279.484 211.285C278.545 156.248 262.732 86.7976 334.2 52.9597C408.219 17.9143 516.57 59.9585 610.032 54.782C682.977 50.742 750.868 11.4555 820.062 26.0502C889.218 40.637 896.57 101.206 955.441 127.637C1045.28 167.974 1230.51 151.172 1248.03 218.193C1265.14 283.644 1072.37 295.357 1013.91 351.314C965.209 397.936 1027.39 484.627 945.135 508.135C859.27 532.674 780.209 453.439 686.354 444.93C609.489 437.961 530.578 484.099 460.133 464.163C389.791 444.256 370.105 389.931 339.215 346.69C307.96 302.938 280.299 258.975 279.484 211.285Z" stroke="white" stroke-opacity="0.04"/>
<path opacity="0.46375" fill-rule="evenodd" clip-rule="evenodd" d="M292.397 213.354C294.62 158.331 282.807 88.5875 356.176 56.2852C432.164 22.8302 538.033 67.1456 631.736 63.9535C704.868 61.4621 774.975 23.6387 843.288 39.6912C911.564 55.7351 915.432 116.423 972.748 144.086C1060.22 186.303 1246.29 173.438 1259.95 240.789C1273.29 306.563 1079.97 314.183 1018.33 368.867C966.979 414.427 1024.14 502.383 940.586 524.133C853.364 546.838 778.903 465.975 685.594 455.481C609.177 446.887 527.663 491.325 458.406 469.908C389.25 448.522 372.698 393.812 344.312 349.943C315.589 305.555 290.471 261.033 292.397 213.354Z" stroke="white" stroke-opacity="0.04"/>
<path opacity="0.4225" fill-rule="evenodd" clip-rule="evenodd" d="M305.183 215.696C310.566 160.753 302.768 90.802 377.948 60.0746C455.812 28.2507 559.07 74.7833 652.899 73.5794C726.13 72.6398 798.368 36.3256 865.717 53.8164C933.029 71.2979 933.407 132.031 989.099 160.892C1074.09 204.937 1260.79 196.024 1270.57 263.624C1280.12 329.641 1086.48 333.158 1021.74 386.502C967.801 430.946 1019.87 520.06 935.12 540.026C846.646 560.868 776.878 478.475 684.228 466.01C608.351 455.802 524.333 498.484 456.349 475.612C388.465 452.773 375.066 397.746 349.218 353.302C323.063 308.332 300.518 263.305 305.183 215.696Z" stroke="white" stroke-opacity="0.04"/>
<path opacity="0.38125" fill-rule="evenodd" clip-rule="evenodd" d="M317.826 218.307C326.363 163.512 322.589 93.4381 399.489 64.3232C479.134 34.1692 579.655 82.8622 673.496 83.6481C746.736 84.2614 821.017 49.5006 887.32 68.4084C953.587 87.3061 950.475 148.01 1004.47 178.034C1086.88 223.854 1273.98 218.904 1279.87 286.67C1285.63 352.849 1091.9 352.259 1024.13 404.198C967.673 447.472 1014.59 537.636 928.745 555.793C839.127 574.747 774.135 490.926 682.258 476.504C607.014 464.693 520.595 505.569 453.967 481.269C387.435 457.006 377.207 401.728 353.928 356.763C330.373 311.266 310.429 265.788 317.826 218.307Z" stroke="white" stroke-opacity="0.04"/>
<path opacity="0.34" fill-rule="evenodd" clip-rule="evenodd" d="M330.312 221.185C341.992 166.604 342.246 96.4929 420.772 69.0258C502.101 40.5785 599.763 91.3727 693.502 94.1473C766.663 96.3128 842.895 63.1477 908.071 83.4495C973.213 103.74 966.615 164.342 1018.86 195.492C1098.58 243.031 1285.85 242.05 1287.85 309.899C1289.79 376.16 1096.22 371.464 1025.51 421.935C966.595 463.986 1008.31 555.089 921.467 571.415C830.815 588.458 770.679 503.31 679.687 486.95C605.167 473.551 516.452 512.57 451.26 486.873C386.164 461.214 379.117 405.752 358.436 360.322C337.51 314.353 320.191 268.48 330.312 221.185Z" stroke="white" stroke-opacity="0.04"/>
<path opacity="0.29875" fill-rule="evenodd" clip-rule="evenodd" d="M342.625 224.325C357.434 170.025 361.716 99.9625 441.773 74.1767C524.686 47.4707 619.371 100.304 712.893 105.064C785.884 108.779 863.976 77.2502 927.946 98.9212C991.882 120.581 981.806 181.005 1032.23 213.244C1109.17 262.444 1296.38 265.433 1294.48 333.283C1292.62 399.545 1099.43 390.748 1025.86 439.69C964.57 480.466 1001.02 572.398 913.296 586.874C821.72 601.984 766.513 515.613 676.516 497.334C602.812 482.364 511.909 519.479 448.233 492.416C384.651 465.392 380.796 409.815 362.737 363.974C344.465 317.59 329.792 271.377 342.625 224.325Z" stroke="white" stroke-opacity="0.04"/>
<path opacity="0.2575" fill-rule="evenodd" clip-rule="evenodd" d="M354.749 227.725C372.669 173.772 380.975 103.843 462.464 79.7696C546.862 54.8374 638.453 109.646 731.645 116.385C804.378 121.645 884.234 91.791 946.92 114.805C1009.57 137.806 996.03 197.98 1044.57 231.268C1118.64 282.069 1305.57 289.026 1299.76 356.794C1294.09 422.976 1101.53 410.089 1025.2 457.442C961.598 496.894 992.745 589.543 904.242 602.149C811.854 615.31 761.643 527.821 672.751 507.646C599.952 491.122 506.972 526.287 444.89 497.891C382.899 469.536 382.239 413.911 366.826 367.715C351.23 320.972 339.221 274.476 354.749 227.725Z" stroke="white" stroke-opacity="0.04"/>
<path opacity="0.21625" fill-rule="evenodd" clip-rule="evenodd" d="M366.671 231.38C387.681 177.84 399.999 108.129 482.822 85.7977C568.601 62.6698 656.987 119.386 749.735 128.097C822.122 134.896 903.644 106.752 964.969 131.081C1026.26 155.397 1009.27 215.247 1055.87 249.543C1126.97 301.884 1313.39 312.798 1303.69 380.402C1294.22 446.424 1102.52 429.463 1023.51 475.168C957.685 513.248 983.489 606.501 894.316 617.224C801.228 628.418 756.074 539.918 668.396 517.871C596.59 499.814 501.646 532.987 441.234 503.291C380.91 473.64 383.447 418.035 370.697 371.54C357.797 324.495 348.467 277.773 366.671 231.38Z" stroke="white" stroke-opacity="0.04"/>
<path opacity="0.175" fill-rule="evenodd" clip-rule="evenodd" d="M378.376 235.285C402.449 182.223 418.765 112.815 502.821 92.2537C589.876 70.9582 674.95 129.514 767.141 140.185C839.093 148.514 922.182 122.116 982.073 147.73C1041.93 173.33 1021.51 232.784 1066.11 268.047C1134.16 321.863 1319.84 336.722 1306.26 404.079C1293.01 469.86 1102.39 448.846 1020.81 492.849C952.834 529.51 973.265 623.253 883.53 632.079C789.855 641.293 749.814 551.89 663.456 527.997C592.731 508.43 495.939 539.569 437.27 508.612C378.686 477.699 384.417 422.182 374.346 375.445C364.157 328.155 357.517 281.264 378.376 235.285Z" stroke="white" stroke-opacity="0.04"/>
<path opacity="0.13375" fill-rule="evenodd" clip-rule="evenodd" d="M389.85 239.436C416.956 186.916 437.251 117.897 522.437 99.1296C610.663 79.6925 692.32 140.016 783.841 152.635C855.271 162.484 939.827 137.863 998.209 164.731C1056.56 191.584 1032.74 250.569 1075.28 286.756C1140.2 341.982 1324.91 360.768 1307.47 427.797C1290.45 493.256 1101.15 468.214 1017.09 510.461C947.052 545.659 962.084 639.778 871.897 646.696C777.75 653.919 742.87 563.722 657.937 538.013C588.38 516.958 489.858 546.027 433.003 513.844C376.231 481.709 385.148 426.347 377.769 379.425C370.303 331.948 366.361 284.945 389.85 239.436Z" stroke="white" stroke-opacity="0.04"/>
<path opacity="0.0925" fill-rule="evenodd" clip-rule="evenodd" d="M401.077 243.827C431.185 191.914 455.433 123.367 541.645 106.417C630.934 88.8621 709.076 150.88 799.816 165.431C870.637 176.789 956.556 153.975 1013.36 182.064C1070.13 210.138 1042.93 268.582 1083.37 305.649C1145.08 362.217 1328.6 384.907 1307.32 451.525C1286.54 516.584 1098.8 487.544 1012.36 527.983C940.346 561.675 949.961 656.055 859.431 661.058C764.926 666.28 735.25 575.399 651.846 547.905C583.541 525.389 483.409 552.352 428.437 518.984C373.547 485.664 385.639 430.525 380.961 383.475C376.227 335.869 374.988 288.811 401.077 243.827Z" stroke="white" stroke-opacity="0.04"/>
<path opacity="0.05125" fill-rule="evenodd" clip-rule="evenodd" d="M412.046 248.454C445.118 197.211 473.29 129.22 560.424 114.108C650.667 98.4559 725.197 162.092 815.047 178.558C885.171 191.41 972.349 170.432 1027.5 199.708C1082.63 228.968 1052.09 286.799 1090.37 324.701C1148.79 382.543 1330.89 409.109 1305.8 475.236C1281.3 539.814 1095.34 506.813 1006.63 545.395C932.723 577.54 936.909 672.066 846.147 675.147C751.4 678.363 726.963 586.908 645.19 557.663C578.221 533.712 476.6 558.536 423.58 524.023C370.637 489.56 385.89 434.711 383.918 387.591C381.922 339.913 383.388 292.858 412.046 248.454Z" stroke="white" stroke-opacity="0.04"/>
<path opacity="0.01" fill-rule="evenodd" clip-rule="evenodd" d="M422.742 253.309C458.739 202.798 490.8 135.445 578.749 122.189C669.836 108.46 740.665 173.637 829.513 191.998C898.857 206.328 987.186 187.211 1040.62 217.638C1094.03 248.049 1060.19 305.198 1096.27 343.888C1151.34 402.933 1331.8 433.343 1302.92 498.898C1274.73 562.918 1090.78 525.995 999.906 562.673C924.193 593.231 922.946 687.789 832.062 688.944C737.188 690.149 718.021 598.232 637.978 567.271C572.425 541.916 469.44 564.57 418.435 528.954C367.505 493.39 385.9 438.898 386.636 391.764C387.382 344.073 391.55 297.078 422.742 253.309Z" stroke="white" stroke-opacity="0.04"/>
</svg>