<svg xmlns="http://www.w3.org/2000/svg" width="26" height="24" viewBox="0 0 26 24" fill="none">
<path d="M10.2308 22C11.3248 22 12.2861 21.5712 13 20.8885C13.7139 21.5712 14.6752 22 15.7692 22H19.9231C22.266 22 24 20.0333 24 17.8182V13.4545C24 11.2394 22.266 9.27273 19.9231 9.27273H18.6167C18.7745 9.03384 19.0245 8.90909 19.2308 8.90909H19.9231C21.498 8.90909 22.6154 7.59012 22.6154 6.18182V4.72727C22.6154 3.31897 21.498 2 19.9231 2H19.2308C16.5535 2 14.2557 3.43204 12.9231 5.54667V4.72727C12.9231 3.31898 11.8057 2 10.2308 2H9.53846C5.29169 2 2 5.60307 2 9.81818V17.8182C2 20.0333 3.734 22 6.07692 22H10.2308ZM11.821 8.38355C11.7521 8.76396 11.71 9.1529 11.6968 9.54785C11.2469 9.37081 10.754 9.27273 10.2308 9.27273H8.92442C9.08224 9.03384 9.33223 8.90909 9.53846 8.90909H10.2308C10.8429 8.90909 11.3859 8.70984 11.821 8.38355Z" fill="white" stroke="#0F0F10" stroke-width="4"/>
</svg>